# xmcd
#
# Track frame offsets:
#	183
#	20103
#	44545
#	64898
#	85005
#	108635
#	129768
#	151810
#	173680
#	192988
#	219443
#	239815
#	259825
#	293458
#
# Disc length: 4174 seconds
#
# Revision: 1
# Processed by: cddbd v1.5.1PL2 Copyright (c) Steve Scherf et al.
# Submitted via: EasyCDDAExtractor 7.0.5.1
#
DISCID=c4104c0e
DTITLE=Various Artist - Soul On The Streets (Vol. 1)
DYEAR=1900
DGENRE=Soul
TTITLE0=Dan'elle - Take Care Of Yourself
TTITLE1=Wayne Marshall - Love And Devotion
TTITLE2=Irini - 24_7 Love
TTITLE3=S.L.O. featuring Stevvon - Save Your Love
TTITLE4=Everis - Hooked On You
TTITLE5=Irini - Don't Let Them Know
TTITLE6=Dan'elle - Fire And Desire
TTITLE7=Everis - You Turn Me On
TTITLE8=Wayne Marshall - Sexual Thing
TTITLE9=3rd Zone - Sweet Lovin
TTITLE10=Dan'elle - Fire and Desire (Phat remix)
TTITLE11=Wayne Marshall - Everybody's Gotta Rave
TTITLE12=JNR Dangerous and Cowboy Ranger - Don't Let Them Know (Xtended Remix)
TTITLE13=Hyper-man - She Wants A 24_7
EXTD=
EXTT0=
EXTT1=
EXTT2=
EXTT3=
EXTT4=
EXTT5=
EXTT6=
EXTT7=
EXTT8=
EXTT9=
EXTT10=
EXTT11=
EXTT12=
EXTT13=
PLAYORDER=
